<svg width="148.75mm" height="72.184mm" version="1.1" viewBox="0 0 148.75 72.184" xmlns="http://www.w3.org/2000/svg"><g transform="translate(-.52432 -112.41)"><g transform="matrix(3.4691 0 0 3.4691 -248.46 -398.6)" fill="#9f2cff" stroke-width=".92399" aria-label="nx"><path d="m84.675 168.11v-11.153q0-2.0393-.59554-3.0679-.57749-1.0467-1.8769-1.0467-1.7866 0-2.5807 1.4257-.79405 1.4257-.79405 4.8906v8.9512h-7.0562v-20.447h5.3238l.88429 2.5265h.41507q.90233-1.4437 2.4904-2.1656 1.6062-.72187 3.6815-.72187 3.3928 0 5.2696 1.9671 1.8949 1.9671 1.8949 5.5403v13.3z"/><path d="m98.319 157.68-6.2441-10.016h8.0127l3.104 5.7388 3.1762-5.7388h8.0308l-6.4066 10.016 6.6592 10.431h-8.0127l-3.4469-6.208-3.4289 6.208h-8.0308z"/></g></g></svg>
