<svg width="201mm" height="103.43mm" version="1.1" viewBox="0 0 201 103.43" xmlns="http://www.w3.org/2000/svg"><g transform="translate(0 -1.6579e-6)" display="none" fill="#9600ff"><path transform="translate(.20406 -140.19)" d="m135.8 222.32c.5598-2.8421-1.6364-4.9737-6.5886-6.3948l-4.5862-1.1627c-7.1518-1.8907-12.462-4.6663-15.965-8.0086-.16708-.15941-.34729-.1613-.50607-.324-3.488-3.5742-5.1244-7.8158-4.9091-12.725.21531-6.7178 3.1866-12.165 8.9139-16.342 7.2309-4.4979 7.8232-5.6851 15.437-5.6237.0853-.00015 1.8449-.43149 5.8565-.57432 8.1162.12332 14.691 2.2108 19.723 6.2626 5.1244 4.0909 7.7297 9.6029 7.8158 16.536l-21.187-.0647c.17226-5.512-2.2608-8.268-7.2991-8.268-2.1531 0-4.1555.64594-6.0072 1.9378-1.8517 1.2488-2.9498 2.9282-3.2943 5.0383-.73205 3.488 2.3469 5.878 9.2369 7.1699 5.9857 1.4211 10.615 3.079 13.888 4.9737 3.2727 1.8517 5.7704 4.1555 7.4928 6.9115 1.7225 2.756 2.5192 6.0718 2.39 9.9474-.12917 4.2201-1.5072 7.9881-4.134 11.304-2.6268 3.3158-6.4719 5.8802-11.433 7.945-4.3613 1.8151-8.1413 2.7104-12.118 2.7709-5.9345-6e-5-13.138-.84476-18.111-3.1586-4.3062-2.067-7.6867-4.8661-10.141-8.3972-2.4115-3.5742-3.6603-7.6651-3.7464-12.273l18.763.39644c.0536 3.8536 2.2734 6.2258 4.6551 7.6514 1.4509.86839 3.3338 1.2863 5.6486 1.2537 2.6268 0 4.8661-.58135 6.7178-1.744 1.8517-1.2057 3.0144-2.8852 3.4881-5.0383z" display="inline"/><path transform="translate(.20406 -140.19)" d="m156.41 243.15 9.6908-55.903h-10.02l2.637-15.426 10.02-.0659.85701-6.2628q1.6481-11.405 9.0975-18.129 7.9768-7.1198 20.766-6.9879 3.2962 0 10.746 1.4503l-1.6481 16.415q-3.0325-.79108-5.142-.79108-4.8124 0-7.9768 2.2414-3.0984 2.1755-3.9554 6.3287l-.98886 5.8013h13.514l-2.6369 15.426h-13.514l-9.6908 55.903z" display="inline"/></g><g transform="translate(3e-7 .1792)"><path transform="matrix(.94566 0 0 .94566 -10.979 -127.04)" d="m183.85 243.49v-59.549h-11.025v-16.432h11.025v-6.0392c0-8.6608 2.5514-15.379 7.6543-20.154 5.1029-4.7752 12.266-7.1628 21.488-7.1628 3.3707 0 7.0691.49157 11.095 1.4747l.0702 17.415c-1.4513-.42133-3.3941-.632-5.8285-.632-7.1628 0-10.744 3.0898-10.744 9.2694v5.8285h16.571v16.432h-16.571v59.549z" fill="#0869ff"/><path transform="matrix(.94566 0 0 .94566 -10.979 -127.04)" d="m158.18 221.57c0-1.9428-1.0166-3.5016-3.0496-4.6763-2.0331-1.1747-5.8718-2.5083-11.589-3.6597-9.1632-1.8455-13.08-3.2846-16.807-8.6996-3.111-7.2328-8.006-7.5675-8.6741-13.869 0-6.732 2.7785-12.267 8.3356-16.604 5.5571-4.3826 12.831-6.5739 21.822-6.5739 9.6684 0 17.439 2.1913 23.313 6.5739s8.81 10.143 8.81 17.282h-22.906c0-5.8736-3.0948-8.8104-9.2844-8.8104-2.3945 0-4.405.67772-6.0315 2.0332-1.6265 1.3103-2.4397 2.9594-2.4397 4.9474 0 2.0332.99395 3.6823 2.9818 4.9474 1.9879 1.2651 5.1505 2.3043 9.4877 3.1175 4.3824.81328 8.2227 1.7847 11.521 2.9142 11.024 3.7952 16.536 10.595 16.536 20.399 0 6.6869-2.9818 12.131-8.9456 16.333-5.9185 4.2019-13.599 6.3028-23.042 6.3028-.15345 0-.36336.00087-.516-.00048-6.0942-.0538-11.487-1.1843-16.291-3.3881-4.9246-2.2591-8.7648-5.3314-11.521-9.217-2.756-3.8856-4.1339-7.9746-4.1339-12.267l11.505-.39568c.0904 3.3886 7.7485 6.4671 9.9172 8.0485 2.1686 1.5362 5.3428 2.2054 11.649 2.1064 3.117-.0489 5.4441-.63255 6.9802-1.8976 1.5813-1.2651 2.3719-2.9142 2.3719-4.9474z" fill="#c81aff"/></g><g transform="translate(.20406 -140.19)"><path d="m93.913 191.54 10.431-19.8h23.255l-18.936 35.015 19.866 36.875h-23.388l-11.295-21.261-11.096 21.261h-23.52l19.933-36.875-18.869-35.015h23.52z"/><path d="m20.792 171.74.73086 8.4381q7.4415-9.767 20.531-9.767 11.229 0 16.743 6.7106 5.5811 6.7106 5.7804 20.198v46.31h-22.457v-45.38q0-5.4482-2.1926-7.973-2.1926-2.5912-7.973-2.5912-6.5777 0-9.7669 5.1825v50.762h-22.391v-71.89z"/></g></svg>
