<svg width="208.95mm" height="78.216mm" version="1.1" viewBox="0 0 208.95 78.216" xmlns="http://www.w3.org/2000/svg"><g transform="translate(-.52432 -109.39)"><g transform="matrix(3.4691 0 0 3.4691 -248.46 -398.6)"><g fill="#9f2cff" aria-label="sf"><g transform="translate(-2.7603 .003)" fill="#9f2cff" stroke-width=".56065"><path d="m123.75 159.45q0 2.1791-1.4235 3.3508-1.4235 1.1717-4.0954 1.1717-2.4309 0-3.8983-.68986v-3.4055q1.0074.54751 1.8725.76652.86506.219 1.752.219.74462 0 1.1169-.1971.37231-.20806.37231-.56941 0-.38326-.2847-.65701-.28471-.28471-1.4235-.93077-1.1607-.63511-1.6973-1.4564-.52561-.82127-.52561-2.0039 0-1.8834 1.325-2.9018 1.325-1.0184 3.7669-1.0184 1.2264 0 2.2338.2847 1.0074.28471 1.9601.87602l-1.325 2.7594q-.72271-.47085-1.5002-.74461-.76651-.2847-1.325-.2847-.83221 0-.83221.74461 0 .31755.33945.55846.35041.2409 1.1279.62416 2.4638 1.2264 2.4638 3.5041z"/><path d="m123.26 168.98q-1.2045 0-2.2667-.29566v-3.3179q.68986.1971 1.2812.1971.81031 0 1.2264-.3285.41611-.32851.56941-1.0403l2.0805-9.8223h-1.8177l.47086-2.0805 2.0696-1.0512.1752-.81031q.47086-2.1024 1.5987-3.0442 1.1388-.95267 3.0222-.95267.87601 0 1.6973.1752.82126.17521 1.4016.45991l-1.0841 2.8908q-.70081-.33946-1.4126-.33946-.38326 0-.65701.20806-.26281.1971-.35041.58036l-.1752.77746h2.3105l-.72272 3.1865h-2.2886l-2.2448 10.501q-.47086 2.1024-1.6863 3.0989-1.2045 1.0074-3.1974 1.0074z"/></g></g><g stroke-width=".92399" aria-label="nx"><path d="m84.675 168.11v-11.153q0-2.0393-.59554-3.0679-.57749-1.0467-1.8769-1.0467-1.7866 0-2.5807 1.4257-.79405 1.4257-.79405 4.8906v8.9512h-7.0562v-20.447h5.3238l.88429 2.5265h.41507q.90233-1.4437 2.4904-2.1656 1.6062-.72187 3.6815-.72187 3.3928 0 5.2696 1.9671 1.8949 1.9671 1.8949 5.5403v13.3z"/><path d="m98.319 157.68-6.2441-10.016h8.0127l3.104 5.7388 3.1762-5.7388h8.0308l-6.4066 10.016 6.6592 10.431h-8.0127l-3.4469-6.208-3.4289 6.208h-8.0308z"/></g></g></g></svg>
